<?xml version="1.0" standalone="no"?>
<!DOCTYPE svg PUBLIC "-//W3C//DTD SVG 20010904//EN"
 "http://www.w3.org/TR/2001/REC-SVG-20010904/DTD/svg10.dtd">
<svg version="1.0" xmlns="http://www.w3.org/2000/svg"
 width="1024.000000pt" height="1024.000000pt" viewBox="0 0 1024.000000 1024.000000"
 preserveAspectRatio="xMidYMid meet">

<g transform="translate(0.000000,1024.000000) scale(0.100000,-0.100000)"
fill="#000000" stroke="none">
<path d="M4770 9844 c-498 -44 -906 -135 -1331 -295 -1580 -596 -2729 -2000
-2999 -3663 -69 -426 -78 -929 -24 -1361 106 -855 456 -1683 995 -2357 361
-451 800 -832 1307 -1131 199 -118 642 -330 658 -314 3 3 -2 81 -10 174 -34
348 -32 778 5 1028 11 70 184 817 444 1915 l136 575 -21 60 c-185 512 -150
1049 90 1414 105 158 206 251 355 322 303 147 658 50 797 -218 60 -114 80
-192 85 -338 9 -230 -25 -396 -207 -1000 -199 -662 -219 -760 -186 -925 65
-324 358 -550 711 -550 320 0 620 133 870 384 203 205 345 442 454 759 97 281
146 563 158 912 28 840 -342 1497 -1031 1831 -312 151 -615 211 -1010 201
-225 -6 -365 -24 -551 -73 -739 -193 -1304 -779 -1469 -1526 -40 -182 -49
-289 -43 -501 6 -214 23 -316 82 -505 65 -204 136 -350 244 -496 28 -37 53
-83 57 -102 4 -24 -13 -114 -61 -316 -37 -156 -74 -297 -82 -314 -27 -59 -73
-64 -168 -16 -364 182 -694 645 -841 1180 -75 274 -100 480 -91 747 19 536
171 1031 451 1460 208 320 502 609 831 816 679 428 1653 591 2505 419 851
-171 1565 -688 1948 -1410 269 -506 361 -1086 276 -1739 -74 -573 -287 -1108
-611 -1534 -94 -124 -339 -371 -448 -454 -294 -221 -600 -362 -925 -427 -377
-75 -672 -57 -974 60 -221 86 -430 241 -526 391 l-26 41 -119 -456 c-218 -845
-216 -838 -337 -1112 -65 -149 -225 -455 -342 -655 -42 -71 -76 -132 -76 -136
0 -4 52 -21 115 -38 620 -172 1254 -220 1875 -140 1335 170 2529 894 3294
1999 666 960 952 2133 805 3293 -132 1039 -603 2000 -1346 2743 -378 378 -778
664 -1267 905 -482 238 -971 382 -1546 455 -119 15 -763 28 -880 18z"/>
</g>
</svg>
